<?xml version="1.0" encoding="UTF-8"?>
<svg id="_图层_2" data-name="图层 2" xmlns="http://www.w3.org/2000/svg" viewBox="0 0 71.48 71.48">
  <defs>
    <style>
      .cls-1 {
        fill: #172642;
      }

      .cls-2 {
        fill: #f8f8f9;
      }

      .cls-3 {
        fill: #fdfdfe;
      }

      .cls-4 {
        fill: #0f213f;
      }

      .cls-5 {
        fill: #c5953a;
      }

      .cls-6 {
        fill: #0f203f;
      }

      .cls-7 {
        fill: #cf9b3a;
      }

      .cls-8 {
        fill: #4a455c;
      }

      .cls-9 {
        fill: #262d48;
      }

      .cls-10 {
        fill: #f5f5f6;
      }

      .cls-11 {
        fill: #f3f3f5;
      }

      .cls-12 {
        fill: #f9f9fa;
      }

      .cls-13 {
        fill: #766779;
      }

      .cls-14 {
        fill: #f7f7f8;
      }

      .cls-15 {
        fill: #45425a;
      }

      .cls-16 {
        fill: #282d48;
      }

      .cls-17 {
        fill: #65566a;
      }

      .cls-18 {
        fill: #272c48;
      }

      .cls-19 {
        fill: #202a45;
      }

      .cls-20 {
        fill: #77687a;
      }

      .cls-21 {
        fill: #423e56;
      }

      .cls-22 {
        fill: #9597a7;
      }

      .cls-23 {
        fill: #695e70;
      }

      .cls-24 {
        fill: #afaeb9;
      }

      .cls-25 {
        fill: #0e203f;
      }

      .cls-26 {
        fill: #2a2f4a;
      }

      .cls-27 {
        fill: #fefeff;
      }

      .cls-28 {
        fill: #fcfcfd;
      }

      .cls-29 {
        fill: #1e2945;
      }

      .cls-30 {
        fill: #34354e;
      }

      .cls-31 {
        fill: #424159;
      }

      .cls-32 {
        fill: #10213f;
      }

      .cls-33 {
        fill: #41344d;
      }

      .cls-34 {
        fill: #3c3a53;
      }

      .cls-35 {
        fill: #fbfbfc;
      }

      .cls-36 {
        fill: #fafafb;
      }

      .cls-37 {
        fill: #c4953a;
      }

      .cls-38 {
        fill: #3d3c54;
      }

      .cls-39 {
        fill: #393951;
      }

      .cls-40 {
        fill: #fff;
      }

      .cls-41 {
        fill: #1a2643;
      }

      .cls-42 {
        fill: #8ea0b1;
      }

      .cls-43 {
        fill: #6d7287;
      }

      .cls-44 {
        fill: #fefefe;
      }

      .cls-45 {
        fill: #4d475e;
      }

      .cls-46 {
        fill: #6e6c80;
      }

      .cls-47 {
        fill: #bcb8c1;
      }

      .cls-48 {
        fill: #2d2d47;
      }

      .cls-49 {
        fill: #4e465e;
      }

      .cls-50 {
        fill: #f9fafb;
      }

      .cls-51 {
        fill: #726173;
      }

      .cls-52 {
        fill: #6f5e71;
      }

      .cls-53 {
        fill: #4f4c63;
      }

      .cls-54 {
        fill: #b2b1bb;
      }

      .cls-55 {
        fill: #c4c4cd;
      }

      .cls-56 {
        fill: #9b96a3;
      }

      .cls-57 {
        fill: #feffff;
      }

      .cls-58 {
        fill: #5d5d73;
      }

      .cls-59 {
        fill: #fcfdfd;
      }

      .cls-60 {
        fill: #3d3b54;
      }

      .cls-61 {
        fill: #9793a1;
      }

      .cls-62 {
        fill: #fdfdfd;
      }

      .cls-63 {
        fill: #102240;
      }
    </style>
  </defs>
  <g id="_图层_1-2" data-name="图层 1">
    <g>
      <path class="cls-25" d="M54.2,20.91c.02.55.03,1.1.05,1.65.19,5.11.09,10.29-.58,15.37s-1.95,10.07-5,14.26c-.96-.05-1.91-.23-2.87-.32-6.93-.68-14.51-.63-21.42.15-.2.02-1.29.21-1.36.16-2.57-3.5-3.97-7.53-4.75-11.78-.9-4.91-1.12-10-1.06-14.98.02-1.51.04-3,.09-4.5,6.15-.08,12.12-2.6,16.83-6.43.72-.59,1.39-1.23,2.09-1.85,4.6,4.98,11.11,8.22,17.98,8.28Z"/>
      <path class="cls-25" d="M58.43,55.11l-2.35,5.71c-3.29-.98-6.63-1.87-10.05-2.28-1.85-.22-3.71-.29-5.57-.34-4.04-.11-8.35-.17-12.38.09-4.31.29-8.51,1.25-12.62,2.52l-2.41-5.68c4.5-1.72,9.32-2.54,14.12-2.93,5.55-.45,11.65-.45,17.19,0,4.78.39,9.58,1.23,14.07,2.91Z"/>
      <path class="cls-5" d="M49.39,52.34l1.18-1.89c3.58-6.22,4.3-14.72,4.44-21.8.06-2.81-.03-5.61-.19-8.41-1.76-.02-3.52-.17-5.24-.55-3.52-.77-6.87-2.42-9.71-4.62-1.31-1.02-2.57-2.2-3.6-3.5-.06-.01-.08.04-.12.07-.32.3-.64.71-.97,1.03-3.03,2.86-7.14,5.28-11.13,6.49-2.39.73-4.86,1.08-7.37,1.08-.08.93-.06,1.86-.14,2.78-.1,5.54,0,11.19.92,16.66.75,4.48,2.1,8.85,4.8,12.54.04.08-.08.09-.13.1-.52.13-1.13.14-1.66.28-2.59-3.81-3.89-8.35-4.63-12.88-.94-5.74-1.11-11.61-.96-17.41.03-1.18.02-2.37.14-3.55,7.76.05,15.15-3.52,20.69-8.76.19-.18.38-.36.53-.58.14-.02.5.5.61.62,4.8,5.08,11.37,8.37,18.43,8.72.2,0,1.13-.04,1.22.02.03.02.04.06.04.1.02.52.02,1.05.05,1.57.23,5.62.15,11.31-.53,16.9-.6,4.98-1.71,10.08-4.29,14.43-.08.14-.46.81-.55.84l-1.82-.28Z"/>
      <path class="cls-5" d="M45.77,59.01c-2.93,2.62-6.38,4.67-10.03,6.14-3.41-1.41-6.67-3.3-9.45-5.73-.08-.07-.43-.37-.43-.43l2.17-.21h.51c2.24,1.64,4.65,3.08,7.25,4.05,2.57-1.05,5.02-2.39,7.26-4.02.9-.01,1.82.11,2.72.22Z"/>
      <path class="cls-25" d="M63.43,59.15l-4.5,1.86.98,3.67c-.54-.22-1.04-.51-1.57-.74-2.19-.93-4.61-1.46-6.95-1.88l.33-1.95,4.62,1.27,1.83-4.21c1.64.48,3.27,1.04,4.82,1.74.14.06.34.14.44.25Z"/>
      <path class="cls-25" d="M13.38,57.15l1.77,4.24,4.62-1.29.33,1.95c-2.29.39-4.55.96-6.71,1.79l-1.81.83,1.05-3.67-4.52-1.88c1.68-.83,3.47-1.46,5.28-1.98Z"/>
      <path class="cls-25" d="M41.96,58.72l-1.38.92c-1.54.94-3.15,1.77-4.83,2.45-1.96-.87-4.08-1.86-5.8-3.15-.09-.07-.24-.14-.27-.25.43-.06.88,0,1.31-.02,3.16-.09,6.31-.09,9.48,0,.5.01,1.01-.04,1.5.05Z"/>
      <path class="cls-25" d="M7.43,50.2c.88-.17,1.74-.6,2.64-.67,1.58-.12,4.96.66,5.95,2,.04.06.19.29.17.35-.16.15-.37.23-.57.29-2.27.67-5.78.31-7.62-1.29-.08-.07-.63-.62-.57-.69Z"/>
      <path class="cls-25" d="M64.05,50.2c-.27.52-.83.93-1.33,1.21-1.98,1.12-4.76,1.42-6.93.73-.18-.06-.35-.16-.51-.26.05-.14.13-.28.22-.4,1-1.31,4.38-2.08,5.95-1.96.85.07,1.76.49,2.6.67Z"/>
      <path class="cls-25" d="M10.29,45.43c-.6.02-1.24-.13-1.82-.3-1.67-.48-3.38-1.71-4.46-3.06-.45-.57-.88-1.25-1-1.97.09-.08,2.13.32,2.39.39,1.5.45,4,2.53,4.67,3.95.14.31.25.64.23.99Z"/>
      <path class="cls-25" d="M68.48,40.1c-.08.7-.5,1.35-.93,1.9-1.3,1.64-3.59,3.19-5.71,3.43-.25.03-.65.1-.63-.2.1-1.47,2.6-3.55,3.82-4.23,1.11-.62,2.21-.77,3.46-.9Z"/>
      <path class="cls-25" d="M63.14,45.78c.9-.08,2.03-.03,2.82.44.15.09.53.27.28.43-1.96,1.41-5.54,3.55-7.94,2.08-.21-.13-.38-.2-.23-.44.83-1.29,3.58-2.39,5.06-2.51Z"/>
      <path class="cls-25" d="M7.04,45.78c1.36-.12,2.68.18,3.91.73.96.42,1.98,1.07,2.56,1.95-.79.71-2.17.84-3.18.67-1.99-.35-3.56-1.47-5.19-2.57.41-.52,1.25-.71,1.9-.77Z"/>
      <path class="cls-25" d="M61.86,18.86c-1.55-.03-3.09-1-4.26-1.95s-2.51-2.39-2.93-3.95c1.54,0,3.26.81,4.45,1.76,1.35,1.08,2.1,2.57,2.74,4.14Z"/>
      <path class="cls-25" d="M16.81,12.95c-.34,1.48-1.6,2.85-2.74,3.81-1.2,1.01-2.79,2.04-4.4,2.1.71-2.04,1.85-3.75,3.75-4.85,1-.58,2.22-1.09,3.4-1.06Z"/>
      <path class="cls-25" d="M9.24,41.91c-1.45-.24-2.69-1.44-3.54-2.58-1.02-1.35-1.86-3.13-1.89-4.85,1.67.16,2.88,1.66,3.68,3.02s1.35,2.9,1.75,4.41Z"/>
      <path class="cls-25" d="M67.67,34.48c0,1.7-.84,3.46-1.84,4.81-.86,1.16-2.11,2.38-3.59,2.62.4-1.44.93-2.91,1.66-4.22.79-1.41,2.05-3.03,3.77-3.21Z"/>
      <path class="cls-25" d="M59.2,13.91c-1.47-.34-2.79-1.55-3.66-2.75-1.02-1.4-1.74-3.17-1.77-4.92,1.38.41,2.47,1.55,3.28,2.7,1.04,1.49,1.73,3.21,2.15,4.97Z"/>
      <path class="cls-25" d="M17.76,6.24c-.11,1.77-.74,3.44-1.77,4.87-.88,1.22-2.18,2.41-3.66,2.79.35-1.76,1.12-3.55,2.15-5.02.8-1.14,1.89-2.27,3.28-2.65Z"/>
      <path class="cls-25" d="M9.57,10.29s.3.9.33,1.03c.51,2.15-.09,6.37-1.11,8.36-.05.09-.46.78-.55.71-.23-.84-.56-1.71-.62-2.6-.14-1.99.43-5.17,1.42-6.91.07-.12.38-.69.53-.59Z"/>
      <path class="cls-25" d="M63.24,20.38c-.48-.41-.75-1.14-.95-1.74-.7-2-1.35-6.23-.44-8.15.12-.25.13-.27.31-.06,1.22,1.39,1.83,5.64,1.69,7.45-.06.85-.39,1.69-.62,2.5Z"/>
      <path class="cls-25" d="M12.48,42.58c.98.24,1.76,1.09,2.32,1.9,1.2,1.75,1.98,4.48,1.69,6.6,0,.07,0,.12-.07.16-1.03-1.18-2.21-2.37-2.84-3.82s-.83-3.24-1.09-4.84Z"/>
      <path class="cls-25" d="M59,42.58c-.28,2.02-.53,4.15-1.65,5.9-.63.99-1.5,1.92-2.31,2.77-.28-1.76.12-3.7.85-5.32.6-1.34,1.64-2.92,3.1-3.35Z"/>
      <path class="cls-25" d="M11.19,45.29c-.08.06-.48-.4-.54-.48-.62-.81-.91-2.16-1.03-3.16-.25-2.11-.04-4.34.43-6.4.46.52.77,1.27,1,1.93.93,2.63.98,5.46.14,8.12Z"/>
      <path class="cls-25" d="M60.29,45.29c-.22-1-.52-1.99-.57-3.02-.12-2.38.38-5.02,1.69-7.03.06,0,.27,1.09.3,1.23.37,2.18.57,6.78-.99,8.51-.05.06-.37.37-.43.31Z"/>
      <path class="cls-25" d="M6.33,30c-.07.07-.41-.2-.48-.26-.79-.67-1.37-2.23-1.64-3.22-.49-1.74-.72-3.68-.5-5.48.57.17,1.07.71,1.4,1.2,1.43,2.09,1.49,5.33,1.22,7.76Z"/>
      <path class="cls-25" d="M65.15,30l-.14-1.97c-.01-2.04.49-5.59,2.36-6.79.06-.04.33-.2.38-.19.07.01.12.57.12.69.11,2.14-.47,5.57-1.69,7.37-.23.34-.62.82-1.03.9Z"/>
      <path class="cls-25" d="M66.1,14.72c.13.43.12.83.14,1.26.08,1.27.18,2.63-.07,3.88-.22,1.1-1.08,3.63-2,4.29-.16.11-.23.16-.26-.07-.39-2.68-.03-7.17,1.98-9.22.06-.06.12-.15.21-.14Z"/>
      <path class="cls-25" d="M7.57,24.24c-.21.23-1.04-1.1-1.12-1.24-.83-1.5-1.27-3.23-1.26-4.93,0-1.12,0-2.26.19-3.36.07-.09.48.46.51.51.93,1.25,1.55,3.27,1.76,4.81.19,1.41.08,2.8-.09,4.21Z"/>
      <path class="cls-25" d="M69.62,26.62c-.44,2-.82,3.91-2.06,5.59-.67.9-1.57,1.9-2.66,2.27.29-1.21.31-2.49.8-3.65.57-1.36,1.86-3.2,3.17-3.93.23-.13.49-.25.75-.28Z"/>
      <path class="cls-25" d="M6.57,34.48c-1.04-.36-1.94-1.33-2.59-2.19-1.29-1.7-1.64-3.63-2.12-5.66.06-.04.38.1.46.13,1.41.6,2.78,2.53,3.39,3.9.54,1.22.6,2.53.86,3.83Z"/>
      <path class="cls-25" d="M59.85,18.87c.38-.11,1.12.74,1.35,1.02,1.55,1.87,2.39,4.3,2.48,6.71,0,.1.03.5-.07.5-1.94-1.05-2.8-3.35-3.41-5.36-.16-.54-.68-2.27-.49-2.73.02-.06.08-.13.14-.15Z"/>
      <path class="cls-25" d="M11.51,18.87c.47-.06.28.85.23,1.14-.3,1.92-1.78,6.1-3.64,6.98-.43.21-.26,0-.25-.3.07-2.16.47-3.7,1.58-5.56.33-.56,1.43-2.18,2.08-2.26Z"/>
      <path class="cls-25" d="M62.96,27.53c.37.69.75,1.38.98,2.14.46,1.58.79,5.42-.08,6.82-.1.15-.2.33-.39.37-.53-1.31-.91-2.53-1.11-3.94-.22-1.49-.5-3.8.34-5.13.04-.06.19-.33.28-.27Z"/>
      <path class="cls-25" d="M8.05,36.86c-.44-.16-.63-.78-.73-1.2-.56-2.31-.15-5.65,1.01-7.74l.27-.4c.35.34.52.86.62,1.33.3,1.36.12,2.8-.08,4.16s-.6,2.55-1.09,3.84Z"/>
      <path class="cls-25" d="M61.05,15.57c-.58-.12-.99-.81-1.25-1.3-1.01-1.92-1.27-4.24-1.14-6.39,0-.15.2-1.45.31-1.45,1.18,1.2,1.78,3.19,2.02,4.84.2,1.43.06,2.87.05,4.3Z"/>
      <path class="cls-25" d="M10.43,15.57c.03-1.41-.13-2.81.05-4.21.22-1.68.84-3.69,2.02-4.93.09,0,.23.73.25.85.33,2.23-.03,5.22-1.17,7.19-.24.42-.63,1.06-1.15,1.11Z"/>
      <path class="cls-5" d="M39.77,32.57c1.96-.94,3.46-2.62,4.55-4.48l2.07,1.45c-1.27,2.25-3.06,4.26-5.34,5.51-.42.23-.86.39-1.27.63v1.6c3.42-1.14,6.05-3.87,7.79-6.95l2.05,1.42c-2.32,4.56-6.74,8.35-11.93,9v-11.91c1.51-.44,2.76-1.52,3.55-2.85l1.88,1.26s.04.04.03.07c-.04.13-.45.72-.56.87-.78,1.09-1.7,1.92-2.8,2.68v1.69Z"/>
      <path class="cls-5" d="M33.81,28.91q-.04.08,0,0c.16.2-.02,2.4.05,2.81-1.19-.26-2.39-.92-3.31-1.72-.13-.11-.65-.69-.73-.71-.14-.04-1.03.65-1.2.79-.02.11.76.87.9.99,1.22,1.11,2.7,1.88,4.29,2.31v7.35s-.05.03-.05.03c-.29,0-.74-.11-1.04-.18-4.75-1.03-8.66-4.59-10.85-8.83l2.12-1.43c1.62,3.11,4.37,5.8,7.72,6.95v-1.67c-2.55-.97-4.75-3.03-6.16-5.34-.08-.12-.43-.69-.41-.78l5.08-3.5.11.06c.61,1.09,1.58,1.95,2.7,2.5.16.08.71.25.78.34Z"/>
      <path class="cls-5" d="M36.86,29.1v11.74s-.07.07-.07.07h-2.12v-11.81c.34-.02.74.1,1.07.1.35,0,.76-.11,1.12-.1Z"/>
      <path class="cls-5" d="M38.84,21.72s-.07-.08-.07-.12l-.17-2.03,2.01-.38c.06,0,.08.03.11.07.28.37.56,1.44.62,1.91.01.09.07.54-.02.54h-2.48Z"/>
      <path class="cls-5" d="M30.15,21.72c0-.88.26-1.78.7-2.53.25.16,1.98.3,2.04.38.1.14-.27,1.73-.17,2.03,0,.04-.04.12-.07.12h-2.5Z"/>
      <path class="cls-5" d="M32.72,22.14l.19,2.14-1.98.34c-.09,0-.11-.01-.16-.08-.15-.19-.38-.87-.45-1.13-.11-.41-.2-.84-.18-1.27h2.57Z"/>
      <path class="cls-5" d="M41.31,22.14c.07.02.03.36.02.45-.05.54-.28,1.36-.55,1.83-.06.1-.1.21-.23.2l-1.98-.34c.05-.48.15-.97.19-1.45.01-.12-.04-.69.07-.69h2.48Z"/>
      <path class="cls-5" d="M35.96,19.72l2.18-.09c.05.13.07.27.09.41.07.36.14.87.15,1.23,0,.09.03.45-.07.45h-2.29s-.07-.07-.07-.07v-1.93Z"/>
      <path class="cls-5" d="M35.53,21.72h-2.36c-.12,0-.03-.25-.02-.31.02-.6.06-1.19.2-1.78l2.02.04s.16.03.16.07v1.98Z"/>
      <path class="cls-5" d="M38.38,22.14c0,.31-.02.62-.05.93-.02.17-.13,1.06-.21,1.12-.12.1-1.76-.13-2.05-.05-.04,0-.12-.04-.12-.07v-1.93h2.43Z"/>
      <path class="cls-5" d="M35.53,22.14v2c-.3-.09-2.03.15-2.15.07-.18-.12-.23-1.69-.27-1.97-.02-.04.05-.11.06-.11h2.36Z"/>
      <path class="cls-5" d="M35.96,16.36c.05-.22.68.22.78.31.68.59,1.03,1.62,1.31,2.45-.01.15-.83.11-.97.12-.09,0-.18.05-.28.05-.13,0-.84.03-.84-.07v-2.86Z"/>
      <path class="cls-5" d="M35.96,24.57c.2-.1.36,0,.55,0,.5.01,1,0,1.5.05.09.09-.27,1.01-.34,1.16-.25.55-.7,1.31-1.25,1.61-.06.03-.46.25-.46.06v-2.88Z"/>
      <path class="cls-5" d="M35.53,27.53c-.73-.05-1.29-.92-1.59-1.52-.1-.2-.47-1.1-.45-1.26.01-.14.46-.16.6-.17.31-.02.64.01.95,0,.09,0,.5-.12.5.02v2.93Z"/>
      <path class="cls-5" d="M35.53,19.29c-.68,0-1.38,0-2.05-.12.2-.89.66-1.99,1.38-2.57.07-.06.67-.44.67-.24v2.93Z"/>
      <path class="cls-40" d="M37.53,47s.27-.14.24-.19c-.6-.18-.05-.52.32-.3.21.12.15.32.16.53.4.01.49-.49.88-.14.44.39-.56.37-.79.43-.04.04.01.07.14.1.18.08.33.1.34.36.02.42-.34.1-.54.13-.18.02-.27.15-.37.28-.01.03.02.03.1,0,.28-.1.42-.18.61.13-.04.49.11,1.03.05,1.51-.02.16-.11.51-.33.48-.08-.01-.5-.54-.57-.65-.04-.08-.05-.12.05-.1l.09-.06c.23.11.3.09.22-.05-.2.02-.36-.03-.46-.13-.07-.03-.03-.22.05-.24,0-.04,0-.06-.05-.05,0,.17-.04.32-.1.48.04.06.04.13,0,.24-.05.15-.02.34-.17.43-.13.02-.24-.29-.23-.4.21-.56.23-1.17.55-1.69-.06-.05-.46.29-.58.11-.16-.26.18-.42.34-.54.02-.03,0-.05-.05-.05-.17.05-.6.25-.73.24s-.54-.3-.41-.43c.01-.01.23.02.31,0,.38-.06.83-.2,1.21-.3-.02-.06-.12-.09-.29-.1-.04-.01-.04-.03,0-.05Z"/>
      <path class="cls-5" d="M33.21,44.84c-.46-.46-.31-1.84.02-2.35s1.36-.48,1.69,0c.36.52.22,2.16-.38,2.51-.33.19-1.06.12-1.33-.15Z"/>
      <path class="cls-40" d="M24.76,50.43c.04.35-.21.24-.36.05-.26-.34-.18-1.52-.21-1.98,0-.14-.15-.82-.09-.88.2.09.33-.11.54-.2.6-.26,1.27-.23,1.88-.46.61.1.4.58.44,1.01.05.58.43,1.99.12,2.45-.19.28-.45-.17-.61-.18-.55-.01-1.18.42-1.7.18Z"/>
      <path class="cls-5" d="M37.24,16.53c.99.23,2.02.86,2.69,1.62.08.1.49.58.43.67-.07.1-1.78.38-1.89.31-.25-.72-.5-1.44-.91-2.09-.06-.09-.39-.44-.32-.51Z"/>
      <path class="cls-5" d="M32.94,24.68c.07-.01.09.05.12.1.13.23.22.73.35,1.03.09.21.22.47.33.67.14.25.39.52.5.74.03.06.06.11-.03.12-.09,0-.86-.32-1-.39-.58-.29-1.22-.78-1.65-1.26-.09-.1-.43-.5-.46-.59s.12-.13.19-.15c.5-.16,1.12-.15,1.64-.27Z"/>
      <path class="cls-5" d="M40.38,25c.06.09-.28.49-.36.57-.72.84-1.73,1.46-2.79,1.76-.06-.07.44-.72.51-.84.33-.56.51-1.19.72-1.8.23,0,1.85.24,1.91.31Z"/>
      <path class="cls-5" d="M33.04,19.14c-.08.05-1.29-.16-1.48-.2-.11-.02-.48-.07-.46-.19.04-.27,1.2-1.29,1.48-1.48.25-.17,1.39-.79,1.64-.74.08.02.06.06.02.12-.1.15-.25.29-.35.46-.4.63-.66,1.32-.84,2.04Z"/>
      <path class="cls-5" d="M30.24,43.67c0,.06.07.08.12.1.11.05.98.26.98.31l-.17.5-1.97-.58c.05-.11.13-.54.19-.59.08-.06.51-.19.65-.25.26-.12.9-.39.99-.67.17-.52-.63-.59-.98-.57.03-.16.06-.55.26-.57.35-.03,1.17.26,1.37.59.53.89-.73,1.58-1.44,1.75Z"/>
      <path class="cls-40" d="M41.81,48.29c-.17.05-.58.26-.69.24-.23-.04-.12-.44.09-.48.03,0,.02.09.05.1.22.06.75-.23.95-.24.11,0,.16.1.23.09.05,0,.24-.16.27-.23-.39-.12-1.6.07-1.86.36-.09.1-.26.65-.5.41-.29-.29.37-.77.36-1.1.15.01.13.27.14.28.04.04.95-.17,1.12-.19.24-.03.98-.1,1.15,0,.12.07.3.45.16.55-.13.09-.62.12-.78.17-.04.01-.04.08-.07.09-.21.1-.41.21-.58.36.23.38.91-.1,1.12.36s-.82.08-.88.14c.02.3-.08,1.14-.41,1.23-.2.06-.18-.1-.28-.18-.21-.18-.53-.38-.6-.67.03-.03.5.33.78.23.13-.05.13-.49.13-.61-.07-.07-.9.15-1.03.13-.07,0-.09-.14-.07-.18.04-.06.91-.25,1.05-.24-.06-.12-.24-.07-.15-.26.04-.1.22-.18.34-.31.02-.03,0-.05-.05-.05Z"/>
      <path class="cls-40" d="M32.48,48.38c-.17.08-.37.04-.48-.12-.16-.24.06-.13.22-.17.12-.03.9-.37.74-.53-.17.03-.45-.08-.48-.26-.02-.14.29-.04.36-.11.16-.03.14-.33.1-.45-.03-.09-.35-.39.13-.32.4.06.2.46.24.52,0,.01.19.13.2.14.21.03-.07-.5.35-.3.38.17-.14.54-.14.62,0,.02.36.19.06.3-.2.07-.39.03-.53.27,0,.12.16.01.29.07.06.06.08.16.05.24.04.07-.02.16-.17.25l.03.03c.07-.05.08-.02.05.1-.24.46-.03.61-.11,1.06-.03.16-.23.61-.42.39-.05-.05-.46-.64-.46-.68-.02-.16.32-.4.47-.45.03-.1-.06-.1-.09-.14-.08-.06.02-.25.08-.28.01,0-.14.22-.18.18-.22.26-.47.59-.86.52.16-.21.39-.36.54-.58.08-.12.16-.15.08-.28.06-.09.05-.11-.05-.05Z"/>
      <path class="cls-40" d="M33.76,48.24c-.08-.3.12-.3.19-.42.1-.16.36-.77.33-.94-.02-.09-.12-.16-.09-.26.3-.17.68.13.61.44-.02.12-.47.65-.42.7.33,0,.55-.51.88-.28.38.27-.34.46-.54.43-.03.2.18.21.2.4.03.42-.49.55.08.87.26.15.54.12.62.48.05.25-.06.26-.29.26-.51.01-.56-.26-.86-.59-.15.2-.41.32-.67.33-.12,0-.39-.06-.19-.15.16-.07.6-.25.64-.45s-.51-.49-.56-.64c-.13-.02-.12-.06,0-.1.04-.06.37-.03.37-.01,0,.02-.29,0-.28-.08Z"/>
      <path class="cls-5" d="M41,41.39l.85,2.69c0,.08-.54.2-.64.21l-.69-2.1c-.25,0-.41.23-.64.29-.08-.13-.23-.48-.12-.6.03-.03.57-.32.65-.35.1-.04.51-.21.59-.14Z"/>
      <path class="cls-37" d="M37.91,42.1l.29,2.91-.71.05-.19-2.24-.71.19c.05-.18-.16-.5.03-.61.05-.03.64-.21.73-.22.19-.04.39-.02.57-.07Z"/>
      <path class="cls-27" d="M46,49.29c-.2.1-.54.29-.52-.12.01-.19.18-.13.27-.15.37-.1.74-.2,1.09-.35.1-.03.24.06.28.14.08.15-.26.24-.36.31-.23.17-.07.14-.05.29.04.26-.29.59-.12.74.09.08.47.07.54-.01.04-.04.18-.6.2-.7,0-.1.06-.08.1,0,.1.25.1.48.15.73.02.09.1.14.09.24-.02.48-1.28.43-1.38-.24-.02-.15.02-.3.04-.45.03-.15.02-.19-.05-.1-.31.32-.81.85-1.29.6.46-.15.78-.54,1.1-.88,0-.04-.02-.06-.1-.05Z"/>
      <path class="cls-57" d="M30,48.43c-.12-.2-.21-.02-.36,0-.23.03-.5-.08-.5-.33.4-.08.88-.18,1.28-.32.13-.04.33-.2.41-.2.27,0,.54.42.28.51-.16.05-.85.05-.92.1.09.12.19.22.23.37.09.31.12,1.11.01,1.42-.24.72-.55-.23-.74-.31-.09-.04-.06.16-.22.12-.32-.08-.28-.68-.09-.91.25-.31.17.19.19.21.1.01.17-.04.24-.1.1-.05.08.01.05.1l.06.09c-.13.16-.11.25.07.27.02-.34.02-.68.02-1.02Z"/>
      <path class="cls-27" d="M28.62,48.53c-.08-.01-.04.06-.05.12-.02.33.14,1.49,0,1.67-.17.23-.42-.2-.44-.39s.08-.27.1-.43c.03-.27.04-1.37,0-1.62s-.31-.36-.36-.45c-.12-.24.05-.17.17-.21.15-.06.75-.38.83-.39.14,0,.36.19.35.33-.02.17-.39.39-.41.49-.01.06.24.41.27.58.08.49-.25,1.03-.47.3Z"/>
      <path class="cls-44" d="M45.1,49.19s-.1-.37-.24-.38c-.11.34-.07,1.34-.23,1.59-.05.07-.27.01-.31-.08-.15-.35.06-.53.13-.81.08-.34.28-1.43.22-1.73-.02-.13-.19-.17-.14-.33.03-.11.16-.03.24-.05.28-.07.75-.46.93-.07.15.33-.4.42-.45.6-.02.09.13.24.16.35.06.19.08.61-.03.78-.04.07-.22.16-.28.12Z"/>
      <path class="cls-62" d="M46.67,48.19c.08-.12.26-.14.38-.21.06-.04.12,0,.09-.12-.33.06-.87.08-1.11.34-.07.08-.46.85-.51.26-.02-.2.26-.62.38-.82.2-.35.16.18.2.22.23-.07.46-.13.7-.18.16-.03.65-.12.76-.07.17.07.39.45.12.53-.03,0-.31.06-.32.06h-.69Z"/>
      <path class="cls-7" d="M33.81,33.38l.05,7.35s-.06.03-.1.03l.05-7.38Z"/>
      <path class="cls-28" d="M30.65,48.48c.19-.04.61.3.7.49.22.49-.04.99-.36.46-.05-.09-.4-.75-.4-.79-.01-.06,0-.14.07-.15Z"/>
      <path class="cls-35" d="M29.72,47.43c-.07.04-.09.02-.05-.05.03-.03.22-.15.19-.19-.07-.01-.23-.04-.26-.09-.12-.18.07-.13.17-.17.14-.04.5-.21.6-.22.16-.01.46.22.31.36-.06.05-.81.31-.95.36Z"/>
      <path class="cls-2" d="M42.38,46.72c.24-.03.72.2.55.43-.02.03-.6.25-.68.27-.16.04-.37.06-.53.06,0-.09.1-.07.14-.09-.02-.13,0-.13.1-.05.12-.2.31-.38.52-.48-.1-.02-.14-.06-.1-.1-.04-.01-.04-.03,0-.05Z"/>
      <path class="cls-36" d="M46.24,47.58c-.03-.16.22-.08.28-.21-.02-.07-.19-.11-.19-.15-.05-.29.57-.31.7.07.18.57-.48.21-.79.29Z"/>
      <path class="cls-41" d="M33.76,48.24s.07.05.18.02c.1-.03.46-.26.51-.25.19.22.06.43.02.67-.07.06-.43-.27-.57-.31-.09-.03-.17,0-.24-.02-.06.12-.16.09-.1-.05-.02-.04-.01-.18-.05-.24.15.07.07.21.1.24.03.04.14-.05.14-.05Z"/>
      <path class="cls-10" d="M42.05,46.86l.1-.05c.05-.01.1-.04.14-.05.04-.03.08-.03.1,0,.02.03.09.07.1.1-.21.12-.39.26-.52.48-.04.03-.07.03-.1.05-.17-.16-.42-.3-.33-.59.07-.23.26.19.52.06Z"/>
      <path class="cls-14" d="M41.1,46.81c.09.07,0,.46.33.05.02.29-.1.96-.45.52-.18-.22,0-.66.12-.57Z"/>
      <path class="cls-50" d="M46.29,48.67l-.17.02c.03-.07.02-.12-.02-.16,0-.02-.06-.07-.05-.12.02-.07.66-.24.81-.1.23.23-.45.31-.57.36Z"/>
      <path class="cls-19" d="M29.86,49.1c.02-.08.04-.16.05-.24.02-.02.08-.03.09-.08.02-.1-.01-.24,0-.35.11.18.03.81.09,1.06-.02.14-.33-.02-.35-.06-.04-.07.09-.26.12-.33Z"/>
      <path class="cls-21" d="M38.34,47.34s.09.07.14.1c-.48-.07-.27.22-.29.24-.01.02-.41.1-.48.1.17-.19.37-.36.62-.43Z"/>
      <path class="cls-53" d="M33.67,48.34s0,.07,0,.1c-.03,0-.07.04-.1.05-.04.07-.09.1-.14.1-.07.06-.19.21-.29.17l.43-.45c.03.06.04.04.1.05Z"/>
      <path class="cls-45" d="M32.76,48.77c.08-.09.11-.33.33-.29-.07.14-.26.2-.24.38-.03-.03-.06-.06-.1-.1Z"/>
      <path class="cls-49" d="M37.53,47.05h.52c0,.1-.17.08-.24.1-.1-.09-.2,0-.33-.1.01-.03.03-.03.05,0Z"/>
      <path class="cls-55" d="M46.1,48.53c.17-.04.02.18.19.14-.1.03-.22.1-.33.14-.03-.01-.03-.03,0-.05.14-.12.17-.06.14-.24Z"/>
      <path class="cls-33" d="M32.48,48.38c.06-.03.16-.22.29-.19l-.24.24s-.04-.03-.05-.05Z"/>
      <path class="cls-54" d="M37.81,49.58l-.05.1s-.09-.08-.1-.14c-.03-.02-.03-.03,0-.05-.04-.02-.04-.03,0-.05.1-.09.25.02.14.14Z"/>
      <path class="cls-52" d="M46,49.29c.06-.03.12-.13.24-.09,0,.08-.1.1-.14.14l-.1-.05Z"/>
      <path class="cls-24" d="M29.86,49.1l-.05-.1s.07-.1.1-.14c.13.08-.02.18-.05.24Z"/>
      <path class="cls-47" d="M33.57,48.48c-.01.07-.06.13-.1.19l-.05-.1c.08-.06,0-.07.14-.1Z"/>
      <path class="cls-20" d="M46.34,49.72l-.05-.1s.04-.1.09-.1c.04.08-.04.15-.05.19Z"/>
      <path class="cls-22" d="M47.43,49.43h-.1s0-.1,0-.14c.09,0,.07.09.09.14Z"/>
      <path class="cls-18" d="M37.67,49.53c-.02.07-.07.17-.1.24,0-.08,0-.16,0-.24.03-.1.06-.12.1-.05,0,.02,0,.03,0,.05Z"/>
      <path class="cls-17" d="M41.81,48.29s.07-.08.14-.05c0,.06-.07.07-.1.09l-.05-.05Z"/>
      <path class="cls-13" d="M37.43,47.62s.07-.08.14-.05c0,.06-.06.07-.1.09l-.05-.05Z"/>
      <path class="cls-56" d="M29.72,47.43s-.07.08-.14.05c0-.06.07-.07.1-.09l.05.05Z"/>
      <path class="cls-46" d="M45.96,48.81s0,.07-.1.05c0-.06.06-.07.1-.09v.05Z"/>
      <path class="cls-43" d="M38,48.19s-.06.08-.14.05c0-.05.05-.04.05-.05h.1Z"/>
      <path class="cls-42" d="M37.53,47v.05h-.05s-.06,0-.05-.05c.03,0,.07,0,.1,0Z"/>
      <path class="cls-8" d="M42.15,46.81s-.07.03-.1.05c.02-.05.06-.04.1-.05Z"/>
      <path class="cls-8" d="M42.38,46.72v.05h-.1s.04-.04.1-.05Z"/>
      <path class="cls-3" d="M28.15,55.24c-.07.2.12.86.04.99-.03.05-.19.09-.22-.02-.04-.13-.15-1.39-.1-1.44.01-.01.26-.05.28-.03.1.06.48.66.63.8.04.04.04.1.13.08l-.1-.83c0-.12.16-.16.24-.1.07.05.09,1.27.12,1.46-.06.08-.22.06-.29,0l-.73-.91Z"/>
      <path class="cls-3" d="M55.9,57.02c.07.09.19,1.02.25,1.08.08.08.08-.03.1-.07.06-.12.25-.76.28-.79l.24.12c-.1.16-.47,1.39-.54,1.4-.01,0-.15-.05-.17-.07-.17-.14-.23-.97-.34-1.21-.08-.06-.32.81-.36.86-.07.1-.17.01-.26,0,.06-.18.47-1.41.55-1.42.01,0,.24.09.25.1Z"/>
      <path class="cls-62" d="M34.57,55.96c-.09,0-.18.02-.27-.04-.17-.12-.5-.75-.64-.96l-.09.02.05.98c-.08,0-.22.02-.26-.04-.04-.06-.04-1.41.02-1.46.06-.04.18-.03.24,0,.17.08.48.82.71.93l-.05-.95h.29s0,1.52,0,1.52Z"/>
      <path class="cls-3" d="M40.19,56h-.29s.1-1.52.1-1.52c.48-.01.59.7.88,1,.17-.28-.13-1.01.31-.95.02.51,0,1.02-.05,1.52-.08,0-.18.02-.25,0-.05-.01-.46-.8-.57-.92-.04-.05-.05-.1-.13-.08v.95Z"/>
      <path class="cls-3" d="M47.08,55.21c.25.25.21.87-.01,1.12-.3.34-.78.14-1.16.15l.19-1.52c.32.06.74,0,.98.25Z"/>
      <path class="cls-3" d="M32.74,54.48c.28.06.33.52.21.73-.05.08-.23.17-.23.2,0,.03.4.45.43.55-.5.14-.44-.3-.68-.51-.06-.05-.21-.05-.23.02-.06.23.26.6-.24.54l-.05-1.52c.23.03.57-.05.79,0Z"/>
      <path class="cls-3" d="M24.37,55.11c.9-.17,1.16,1.09.54,1.44-1.02.58-1.5-1.27-.54-1.44Z"/>
      <path class="cls-3" d="M54.28,56.54c1.14-.24,1.06,1.54.13,1.56s-.86-1.4-.13-1.56Z"/>
      <path class="cls-3" d="M21.08,55.59c.95-.15,1.16,1.46.22,1.56-.87.09-1.12-1.42-.22-1.56Z"/>
      <path class="cls-62" d="M18.48,56.15c0,.28.39,1.26.33,1.45-.03.09-.17.11-.24.06-.07-.05-.08-.45-.16-.55-.09-.11-.5.09-.64.1-.01.32.38.76-.14.71l-.33-1.47c.39-.14.29.25.38.52l.67-.14c-.02-.3-.32-.64.14-.67Z"/>
      <path class="cls-3" d="M38.95,54.44c.92-.07.99,1.49.13,1.56-1.02.09-1.03-1.5-.13-1.56Z"/>
      <path class="cls-3" d="M19.47,55.92c.93-.13,1.14,1.43.27,1.56-.95.14-1.16-1.43-.27-1.56Z"/>
      <path class="cls-62" d="M51.53,57.34c-.46.05-.21-.29-.29-.42-.01-.02-.35-.1-.41-.1-.3-.02-.23.28-.31.32-.04.03-.27-.03-.28-.04-.05-.06.72-1.35.8-1.37.08-.02.31.03.34.12l.15,1.49Z"/>
      <path class="cls-62" d="M42.33,54.63c.06.05.4,1.42.38,1.49-.02.09-.23.05-.27.02-.07-.05-.03-.29-.1-.35-.06-.05-.48-.1-.55-.02-.13.16,0,.43-.4.33.09-.18.51-1.43.58-1.47.03-.02.35-.02.37,0Z"/>
      <path class="cls-3" d="M36.15,55.96c-.43.09-.24-.16-.38-.35-.03-.04-.55-.04-.57-.02-.08.07.05.5-.39.38.13-.2.41-1.43.52-1.5s.28-.03.36.07c.05.07.42,1.14.44,1.27.01.05.02.1.01.16Z"/>
      <path class="cls-59" d="M47.91,55.2c.02.37-.43,1.32.18,1.36.5.03.38-.93.48-1.26l.29.05c-.12.62-.03,1.71-1,1.41-.62-.19-.22-1.11-.24-1.55h.29Z"/>
      <path class="cls-62" d="M15.04,57.11c.11-.02.58-.03.54.15-.05.22-.58-.06-.66.25-.1.4.83-.01.97.44.18.56-.61.95-.98.55.08-.29.27-.05.44-.08s.32-.15.26-.34c-.07-.24-.43-.06-.62-.09-.5-.08-.45-.78.05-.88Z"/>
      <path class="cls-59" d="M30.81,56.05l-.09-1.48.95-.05v.24c-.13.02-.62-.07-.66.08,0,.01.04.29.05.3.05.05.57-.07.62.07.09.28-.57.12-.62.17v.43h.67v.24h-.9Z"/>
      <path class="cls-59" d="M45.71,55.14c-.19.12-.63-.24-.66.13-.03.44.69-.02.57.49l-.62-.05c.01.07-.02.41,0,.43.02.02.59.02.62.05.01.01,0,.16-.02.19-.08.11-.76-.07-.93-.05l.14-1.48s.8.03.87.05c.11.03.07.19.02.22Z"/>
      <path class="cls-28" d="M17.06,57.68s.16,0,.23,0c.06.35-.34.58-.64.57-.81-.03-1-1.49-.1-1.58.16-.01.59.07.45.27-.15.22-.18,0-.36-.03-.65-.07-.47,1.2.14,1.09.22-.04.25-.3.28-.32Z"/>
      <path class="cls-28" d="M50.06,55.95s-.07-.18-.21-.24c-.51-.22-.82.84-.37,1.03.3.13.4-.12.49-.11.34.03.11.39-.33.38-1.09-.03-.72-1.92.32-1.51.45.17.35.6.09.45Z"/>
      <path class="cls-28" d="M26.34,54.91c0,.05.02.22,0,.24-.03.03-.55.03-.57.05-.02.02.01.31,0,.38.14.05.44-.08.54-.04.09.03.1.21.08.23-.02.02-.49.05-.57.05-.03.12.11.6.04.66,0,0-.23.04-.24.03-.08-.06-.13-1.31-.19-1.5l.9-.1Z"/>
      <path class="cls-35" d="M53.1,56.15l-.05.24-.43-.1s-.16,1.05-.26,1.19c-.05.07-.23.03-.26,0-.08-.12.28-1,.23-1.25-.01-.07-.48.03-.34-.31l1.1.24Z"/>
      <path class="cls-36" d="M37.43,54.43v.24s-.43,0-.43,0v1.24s-.29.05-.29-.02v-1.14s.07-.05.05-.07c-.23,0-.48.08-.43-.24h1.1Z"/>
      <path class="cls-35" d="M30.43,54.58v.24c-.11,0-.33-.05-.38.08l.09,1.13c-.01.15-.17.12-.29.12-.05-.18-.03-1.23-.1-1.28-.03-.03-.3.01-.38,0v-.24c.35.01.7,0,1.05-.05Z"/>
      <path class="cls-36" d="M43.34,54.67l-.08,1.24c.18.1.4.1.6.09v.24s-.91-.05-.91-.05l.1-1.52h.29Z"/>
      <path class="cls-35" d="M22.33,55.43s.11,1.08.19,1.24l.62-.09v.24s-.88.1-.88.1l-.21-1.48c.06,0,.27-.02.29,0Z"/>
      <path class="cls-36" d="M27.53,54.77l.13,1.45c-.02.09-.22.09-.28.05-.07-.05-.08-1.15-.14-1.34,0-.19.14-.18.29-.17Z"/>
      <path class="cls-36" d="M53.29,57.76c-.1.02-.28.03-.28-.11l.4-1.41s.16.04.19.09c.09.12-.32,1.19-.32,1.43Z"/>
      <path class="cls-12" d="M38,54.49s.02.85,0,.97c0,.08-.03.48-.05.5-.01.01-.23,0-.29,0,.13-.39-.05-1.11.06-1.45.03-.11.25-.05.27-.03Z"/>
      <path class="cls-7" d="M33.81,28.91l-.02,2.76c-.02-.84-.06-1.7-.02-2.55,0-.07-.03-.2.05-.21Z"/>
      <path class="cls-18" d="M37.67,49.34l.57.05c0,.08.03.31-.07.32-.12-.04-.25-.06-.36-.13-.03-.02-.07-.13-.14-.14-.07,0-.07-.07,0-.1Z"/>
      <path class="cls-48" d="M38.24,48.38v.24c-.27-.14-.34.08-.57.14.03-.28.33-.38.57-.38Z"/>
      <polygon class="cls-34" points="38.24 49.1 38.05 49.1 38.22 48.86 38.24 49.1"/>
      <path class="cls-58" d="M37.72,49.1c-.06.09-.03.15-.05.24-.01.08,0,.09,0,.1,0,.02,0,.03,0,.05l-.1.05c0-.15.01-.35.1-.48.07-.06.09-.04.05.05Z"/>
      <path class="cls-39" d="M37.67,49.05c.05-.08.07-.11.19-.09,0,.07-.12.11-.14.14l-.05-.05Z"/>
      <path class="cls-4" d="M33.94,42.73c.67-.2.52,1,.42,1.37-.14.55-.69.54-.74.07-.03-.28,0-1.35.32-1.44Z"/>
      <path class="cls-6" d="M26.72,50c-.19.06-.29-.19-.45-.19-.12,0-.22.14-.33.19-.18.08-1.08.3-1.21.18-.06-.06-.14-.91-.15-1.06-.02-.26.03-.56,0-.81-.03-.17-.17-.29-.21-.41-.09-.25.39-.17.51-.2.5-.1,1.01-.44,1.56-.3l.28,2.6Z"/>
      <path class="cls-60" d="M33.1,49.29l-.05.33-.28-.05s.28-.34.33-.28Z"/>
      <path class="cls-61" d="M33.38,47.39l-.14.14c-.02-.15-.01-.16.14-.14Z"/>
      <path class="cls-30" d="M28.66,47.88s.18.39.16.41c-.16.15-.39-.3-.29-.48,0,0,.11.05.13.06Z"/>
      <path class="cls-38" d="M28.34,47.49s.28-.16.33-.2l-.21.43s-.15-.19-.11-.23Z"/>
      <path class="cls-15" d="M44.98,48.15c.15-.03.27.42.14.43-.12,0-.33-.33-.14-.43Z"/>
      <path class="cls-31" d="M45.19,47.58s-.25.4-.33.33c0,0-.05-.18-.05-.19.01-.02.32-.13.38-.14Z"/>
      <path class="cls-8" d="M42.48,46.86c.02.11-.41.41-.52.48.03-.25.24-.53.52-.48Z"/>
      <path class="cls-63" d="M46.85,55.35c.22.2.15.81-.17.92-.74.23-.28-.62-.34-1.03.16-.01.38,0,.51.11Z"/>
      <path class="cls-1" d="M32.24,54.72s.34-.05.42.02c.29.26-.16.58-.38.43-.06-.04-.06-.44-.04-.45Z"/>
      <path class="cls-32" d="M24.3,56.32c-.3-.26-.24-1.16.37-.96.56.18.22,1.49-.37.96Z"/>
      <path class="cls-63" d="M54.37,56.78c.82-.18.47,1.37-.19,1.03-.34-.18-.18-.95.19-1.03Z"/>
      <path class="cls-32" d="M21.46,55.93c.42.42.02,1.37-.49.84-.46-.48.03-1.29.49-.84Z"/>
      <path class="cls-32" d="M38.94,54.68c.55-.09.63,1.05.08,1.09-.59.04-.6-1-.08-1.09Z"/>
      <path class="cls-32" d="M19.35,57.13c-.42-.42-.02-1.37.49-.84.46.48-.03,1.29-.49.84Z"/>
      <polygon class="cls-9" points="51.19 56.62 50.81 56.58 51.12 56 51.19 56.62"/>
      <path class="cls-16" d="M41.91,55.48c.01-.07.17-.62.24-.57.05.37.35.73-.24.57Z"/>
      <path class="cls-26" d="M35.53,54.77s.13.49.14.57h-.38c.06-.16.08-.35.14-.5.02-.05.03-.14.1-.07Z"/>
      <path class="cls-44" d="M25.1,49.19c-.17-.21-.29-.25-.05-.5.13-.13.41-.17.38-.4-.02-.02-.49.15-.64-.14-.07-.14.34-.18.48-.24s.48-.38.59-.07c.1.29-.49.42.05.68.03.04.05.09.08.14-.34.21-.13,1.13-.12.35.09-.16.22-.08.18.08.01.02,0,.09.03.14.07.11.34.24.14.39-.08.06-.58.12-.74.16-.15.04-.64.33-.62-.04.01-.25.35-.28.33-.46l-.1-.1Z"/>
      <path class="cls-29" d="M26,48.48c.14.06.37.53.12.43-.01,0,0-.09.02.04l-.1.08v.06s-.05-.11-.09-.1c0,.25.09.44-.24.43-.05-.46-.09-.42.16-.77.03-.05.02-.12.03-.14,0,0,.07-.04.1-.05Z"/>
      <path class="cls-11" d="M26,48.48c.46-.22.74.6.14.48-.21.02.04-.08,0-.21-.03-.09-.26-.08-.14-.27Z"/>
      <path class="cls-23" d="M25.19,49.29c-.06-.01-.07-.06-.1-.1.04.02.09.05.1.1Z"/>
      <path class="cls-23" d="M25.43,48.86c0,.23-.15.51-.28.17.01-.06.25-.21.28-.17Z"/>
      <path class="cls-51" d="M25.43,49.53h-.14s0-.09,0-.09c.07-.01.13.03.14.09Z"/>
    </g>
  </g>
</svg>